<svg width="20" height="22" viewBox="0 0 22 22" fill="none"
    xmlns="http://www.w3.org/2000/svg">
    <path d="M19.71 8.92084L17.9775 8.34334L18.7933 6.71167C18.876 6.54088 18.9037 6.34864 18.8725 6.16146C18.8413 5.97428 18.7528 5.8014 18.6192 5.66667L16.6667 3.71417C16.5312 3.57858 16.3567 3.48886 16.1676 3.45762C15.9785 3.42638 15.7844 3.45519 15.6125 3.54L13.9808 4.35584L13.4033 2.62334C13.3423 2.44275 13.2266 2.28566 13.0721 2.17394C12.9177 2.06222 12.7323 2.00142 12.5417 2H9.79167C9.5995 1.99951 9.41203 2.05942 9.25576 2.17127C9.09949 2.28313 8.98233 2.44127 8.92084 2.62334L8.34334 4.35584L6.71167 3.54C6.54088 3.4573 6.34864 3.42964 6.16146 3.46084C5.97428 3.49203 5.8014 3.58055 5.66667 3.71417L3.71417 5.66667C3.57858 5.80212 3.48886 5.97666 3.45762 6.16575C3.42638 6.35484 3.45519 6.54897 3.54 6.72084L4.35584 8.3525L2.62334 8.93C2.44275 8.99099 2.28566 9.10676 2.17394 9.2612C2.06222 9.41564 2.00142 9.60106 2 9.79167V12.5417C1.99951 12.7338 2.05942 12.9213 2.17127 13.0776C2.28313 13.2338 2.44127 13.351 2.62334 13.4125L4.35584 13.99L3.54 15.6217C3.4573 15.7925 3.42964 15.9847 3.46084 16.1719C3.49203 16.3591 3.58055 16.5319 3.71417 16.6667L5.66667 18.6192C5.80212 18.7548 5.97666 18.8445 6.16575 18.8757C6.35484 18.907 6.54897 18.8781 6.72084 18.7933L8.3525 17.9775L8.93 19.71C8.9915 19.8921 9.10866 20.0502 9.26493 20.1621C9.42119 20.2739 9.60866 20.3338 9.80084 20.3333H12.5508C12.743 20.3338 12.9305 20.2739 13.0867 20.1621C13.243 20.0502 13.3602 19.8921 13.4217 19.71L13.9992 17.9775L15.6308 18.7933C15.8005 18.874 15.9909 18.9005 16.1762 18.8693C16.3614 18.8382 16.5327 18.7508 16.6667 18.6192L18.6192 16.6667C18.7548 16.5312 18.8445 16.3567 18.8757 16.1676C18.907 15.9785 18.8781 15.7844 18.7933 15.6125L17.9775 13.9808L19.71 13.4033C19.8906 13.3423 20.0477 13.2266 20.1594 13.0721C20.2711 12.9177 20.3319 12.7323 20.3333 12.5417V9.79167C20.3338 9.5995 20.2739 9.41203 20.1621 9.25576C20.0502 9.09949 19.8921 8.98233 19.71 8.92084ZM18.5 11.8817L17.4 12.2483C17.1471 12.3304 16.915 12.4665 16.7199 12.6472C16.5248 12.8279 16.3713 13.0489 16.2702 13.2948C16.169 13.5407 16.1226 13.8057 16.134 14.0714C16.1455 14.3371 16.2147 14.5971 16.3367 14.8333L16.8592 15.8783L15.8508 16.8867L14.8333 16.3367C14.5983 16.2196 14.3408 16.1543 14.0783 16.1454C13.8158 16.1364 13.5545 16.184 13.312 16.2848C13.0695 16.3856 12.8514 16.5374 12.6727 16.7298C12.4939 16.9222 12.3586 17.1507 12.2758 17.4L11.9092 18.5H10.4517L10.085 17.4C10.003 17.1471 9.86686 16.915 9.68616 16.7199C9.50546 16.5248 9.28448 16.3713 9.03855 16.2702C8.79263 16.169 8.52763 16.1226 8.26196 16.134C7.99628 16.1455 7.73629 16.2147 7.5 16.3367L6.455 16.8592L5.44667 15.8508L5.99667 14.8333C6.11867 14.5971 6.18781 14.3371 6.19929 14.0714C6.21078 13.8057 6.16433 13.5407 6.06316 13.2948C5.962 13.0489 5.80855 12.8279 5.61345 12.6472C5.41836 12.4665 5.18628 12.3304 4.93334 12.2483L3.83334 11.8817V10.4517L4.93334 10.085C5.18628 10.003 5.41836 9.86686 5.61345 9.68616C5.80855 9.50546 5.962 9.28448 6.06316 9.03855C6.16433 8.79263 6.21078 8.52763 6.19929 8.26196C6.18781 7.99628 6.11867 7.73629 5.99667 7.5L5.47417 6.4825L6.4825 5.47417L7.5 5.99667C7.73629 6.11867 7.99628 6.18781 8.26196 6.19929C8.52763 6.21078 8.79263 6.16433 9.03855 6.06316C9.28448 5.962 9.50546 5.80855 9.68616 5.61345C9.86686 5.41836 10.003 5.18628 10.085 4.93334L10.4517 3.83334H11.8817L12.2483 4.93334C12.3304 5.18628 12.4665 5.41836 12.6472 5.61345C12.8279 5.80855 13.0489 5.962 13.2948 6.06316C13.5407 6.16433 13.8057 6.21078 14.0714 6.19929C14.3371 6.18781 14.5971 6.11867 14.8333 5.99667L15.8783 5.47417L16.8867 6.4825L16.3367 7.5C16.2196 7.73508 16.1543 7.99257 16.1454 8.25505C16.1364 8.51753 16.184 8.77887 16.2848 9.02138C16.3856 9.26389 16.5374 9.4819 16.7298 9.66066C16.9222 9.83942 17.1507 9.97476 17.4 10.0575L18.5 10.4242V11.8817Z" fill="white"/>
    <path d="M12.3808 8.82436L10.3495 12.3549L8.96625 11.5492C8.76466 11.4328 8.52509 11.4012 8.30025 11.4615C8.0754 11.5217 7.8837 11.6688 7.76731 11.8704C7.65092 12.072 7.61938 12.3116 7.67963 12.5364C7.73988 12.7613 7.88698 12.953 8.08857 13.0694L10.2297 14.3055C10.3294 14.3636 10.4396 14.4014 10.554 14.4167C10.6683 14.432 10.7846 14.4245 10.8961 14.3946C11.0075 14.3648 11.112 14.3131 11.2034 14.2427C11.2948 14.1723 11.3713 14.0844 11.4286 13.9843L13.901 9.70204C14.0173 9.50045 14.0489 9.26089 13.9886 9.03604C13.9284 8.8112 13.7813 8.6195 13.5797 8.50311C13.3781 8.38672 13.1385 8.35518 12.9137 8.41543C12.6889 8.47567 12.4972 8.62277 12.3808 8.82436Z" fill="white"/>
</svg>
    