<svg width="12" height="20" viewBox="0 0 12 20" fill="white"
    xmlns="http://www.w3.org/2000/svg">
    <path d="M7.83333 9.08337H4.16667C3.68044 9.08337 3.21412 8.89022 2.8703 8.5464C2.52649 8.20259 2.33333 7.73627 2.33333 7.25004C2.33333 6.76381 2.52649 6.29749 2.8703 5.95368C3.21412 5.60986 3.68044 5.41671 4.16667 5.41671H8.75C8.99312 5.41671 9.22627 5.51328 9.39818 5.68519C9.57009 5.8571 9.66667 6.09026 9.66667 6.33337C9.66667 6.57649 9.76324 6.80965 9.93515 6.98155C10.1071 7.15346 10.3402 7.25004 10.5833 7.25004C10.8264 7.25004 11.0596 7.15346 11.2315 6.98155C11.4034 6.80965 11.5 6.57649 11.5 6.33337C11.5 5.60403 11.2103 4.90456 10.6945 4.38883C10.1788 3.87311 9.47935 3.58337 8.75 3.58337H6.91667V1.75004C6.91667 1.50693 6.82009 1.27377 6.64818 1.10186C6.47627 0.929951 6.24312 0.833374 6 0.833374C5.75688 0.833374 5.52373 0.929951 5.35182 1.10186C5.17991 1.27377 5.08333 1.50693 5.08333 1.75004V3.58337H4.16667C3.19421 3.58337 2.26158 3.96968 1.57394 4.65732C0.886308 5.34495 0.5 6.27758 0.5 7.25004C0.5 8.2225 0.886308 9.15513 1.57394 9.84277C2.26158 10.5304 3.19421 10.9167 4.16667 10.9167H7.83333C8.31956 10.9167 8.78588 11.1099 9.1297 11.4537C9.47351 11.7975 9.66667 12.2638 9.66667 12.75C9.66667 13.2363 9.47351 13.7026 9.1297 14.0464C8.78588 14.3902 8.31956 14.5834 7.83333 14.5834H3.25C3.00688 14.5834 2.77373 14.4868 2.60182 14.3149C2.42991 14.143 2.33333 13.9098 2.33333 13.6667C2.33333 13.4236 2.23676 13.1904 2.06485 13.0185C1.89294 12.8466 1.65978 12.75 1.41667 12.75C1.17355 12.75 0.940394 12.8466 0.768486 13.0185C0.596577 13.1904 0.5 13.4236 0.5 13.6667C0.5 14.3961 0.789731 15.0955 1.30546 15.6113C1.82118 16.127 2.52065 16.4167 3.25 16.4167H5.08333V18.25C5.08333 18.4932 5.17991 18.7263 5.35182 18.8982C5.52373 19.0701 5.75688 19.1667 6 19.1667C6.24312 19.1667 6.47627 19.0701 6.64818 18.8982C6.82009 18.7263 6.91667 18.4932 6.91667 18.25V16.4167H7.83333C8.80579 16.4167 9.73842 16.0304 10.4261 15.3428C11.1137 14.6551 11.5 13.7225 11.5 12.75C11.5 11.7776 11.1137 10.8449 10.4261 10.1573C9.73842 9.46968 8.80579 9.08337 7.83333 9.08337Z" fill="white"/>
</svg>
    