<svg width="130" height="82" viewBox="0 0 100 52" fill="none"
    xmlns="http://www.w3.org/2000/svg">
    <path d="M23.9273 38.7008H24.5033V44.0193H23.9273L23.9113 42.929C23.73 43.2977 23.4704 43.5956 23.1327 43.8225C22.7984 44.0458 22.3967 44.1575 21.9273 44.1575C21.5398 44.1575 21.1753 44.0848 20.834 43.9395C20.4962 43.7906 20.1976 43.5885 19.938 43.3332C19.6784 43.0743 19.4758 42.7765 19.33 42.4397C19.1842 42.0993 19.1113 41.7341 19.1113 41.3441C19.1113 40.9576 19.1824 40.596 19.3247 40.2591C19.4704 39.9223 19.6713 39.6262 19.9273 39.371C20.1833 39.1121 20.4802 38.9118 20.818 38.77C21.1558 38.6246 21.5167 38.5519 21.9007 38.5519C22.3735 38.5519 22.7824 38.6672 23.1273 38.8976C23.4758 39.1245 23.7478 39.4224 23.9433 39.7911L23.9273 38.7008ZM21.922 43.5938C22.3309 43.5938 22.6811 43.4945 22.9727 43.2959C23.2678 43.0938 23.4936 42.8226 23.65 42.4822C23.8064 42.1418 23.8847 41.7678 23.8847 41.36C23.8847 40.9417 23.8047 40.5641 23.6447 40.2272C23.4882 39.8868 23.2624 39.6174 22.9673 39.4188C22.6758 39.2167 22.3273 39.1157 21.922 39.1157C21.5096 39.1157 21.1344 39.2167 20.7967 39.4188C20.4624 39.6209 20.1958 39.8922 19.9967 40.2325C19.7976 40.5729 19.698 40.9488 19.698 41.36C19.698 41.7784 19.7993 42.156 20.002 42.4929C20.2082 42.8297 20.4802 43.0974 20.818 43.2959C21.1558 43.4945 21.5238 43.5938 21.922 43.5938Z" fill="#101D2D"/>
    <path d="M26.1427 46.6785H25.5667V38.7008H26.1427V39.7964C26.3312 39.4277 26.5943 39.1299 26.9321 38.9029C27.2734 38.676 27.6805 38.5626 28.1534 38.5626C28.541 38.5626 28.9036 38.6352 29.2414 38.7806C29.5792 38.926 29.8761 39.1281 30.1321 39.3869C30.3916 39.6422 30.5943 39.9383 30.7401 40.2751C30.8859 40.6119 30.9587 40.9736 30.9587 41.36C30.9587 41.7465 30.8859 42.1099 30.7401 42.4503C30.5943 42.7907 30.3916 43.0903 30.1321 43.3491C29.8761 43.6044 29.5792 43.8047 29.2414 43.9501C28.9036 44.0955 28.541 44.1682 28.1534 44.1682C27.6805 44.1682 27.2734 44.0547 26.9321 43.8278C26.5943 43.6009 26.3312 43.303 26.1427 42.9343V46.6785ZM28.1481 39.1263C27.7427 39.1263 27.3925 39.2274 27.0974 39.4295C26.8059 39.628 26.5801 39.8957 26.4201 40.2325C26.2636 40.5694 26.1854 40.9452 26.1854 41.36C26.1854 41.7678 26.2636 42.1418 26.4201 42.4822C26.5765 42.8226 26.8005 43.0956 27.0921 43.3013C27.3872 43.5034 27.7392 43.6044 28.1481 43.6044C28.5499 43.6044 28.9179 43.5051 29.2521 43.3066C29.5899 43.108 29.8619 42.8403 30.0681 42.5035C30.2743 42.1631 30.3774 41.782 30.3774 41.36C30.3774 40.9523 30.2761 40.58 30.0734 40.2432C29.8743 39.9028 29.6059 39.6316 29.2681 39.4295C28.9339 39.2274 28.5605 39.1263 28.1481 39.1263Z" fill="#101D2D"/>
    <path d="M32.4657 46.6785H31.8897V38.7008H32.4657V39.7964C32.6541 39.4277 32.9172 39.1299 33.255 38.9029C33.5963 38.676 34.0034 38.5626 34.4763 38.5626C34.8639 38.5626 35.2265 38.6352 35.5643 38.7806C35.9021 38.926 36.199 39.1281 36.455 39.3869C36.7145 39.6422 36.9172 39.9383 37.063 40.2751C37.2088 40.6119 37.2817 40.9736 37.2817 41.36C37.2817 41.7465 37.2088 42.1099 37.063 42.4503C36.9172 42.7907 36.7145 43.0903 36.455 43.3491C36.199 43.6044 35.9021 43.8047 35.5643 43.9501C35.2265 44.0955 34.8639 44.1682 34.4763 44.1682C34.0034 44.1682 33.5963 44.0547 33.255 43.8278C32.9172 43.6009 32.6541 43.303 32.4657 42.9343V46.6785ZM34.471 39.1263C34.0657 39.1263 33.7154 39.2274 33.4203 39.4295C33.1288 39.628 32.903 39.8957 32.743 40.2325C32.5865 40.5694 32.5083 40.9452 32.5083 41.36C32.5083 41.7678 32.5865 42.1418 32.743 42.4822C32.8994 42.8226 33.1234 43.0956 33.415 43.3013C33.7101 43.5034 34.0621 43.6044 34.471 43.6044C34.8728 43.6044 35.2408 43.5051 35.575 43.3066C35.9128 43.108 36.1848 42.8403 36.391 42.5035C36.5972 42.1631 36.7003 41.782 36.7003 41.36C36.7003 40.9523 36.599 40.58 36.3963 40.2432C36.1972 39.9028 35.9288 39.6316 35.591 39.4295C35.2568 39.2274 34.8834 39.1263 34.471 39.1263Z" fill="#101D2D"/>
    <path d="M40.7665 36.5735L38.6065 44.6149H38.0305L40.1905 36.5735H40.7665Z" fill="#101D2D"/>
    <path d="M44.6749 38.5519C45.194 38.5519 45.6669 38.6778 46.0936 38.9295C46.5202 39.1813 46.8598 39.5199 47.1122 39.9453C47.3647 40.3673 47.4909 40.8353 47.4909 41.3494C47.4909 41.7359 47.418 42.0993 47.2722 42.4397C47.1265 42.7801 46.9238 43.0797 46.6642 43.3385C46.4082 43.5938 46.1096 43.7941 45.7682 43.9395C45.4305 44.0848 45.066 44.1575 44.6749 44.1575C44.3407 44.1575 44.0438 44.0831 43.7842 43.9342C43.5282 43.7817 43.3131 43.5849 43.1389 43.3438V44.0193H41.8376V36.0416H43.1389V39.3656C43.3131 39.1245 43.5282 38.9295 43.7842 38.7806C44.0438 38.6281 44.3407 38.5519 44.6749 38.5519ZM44.6589 42.9024C44.9362 42.9024 45.1869 42.8332 45.4109 42.695C45.6385 42.5531 45.8198 42.3652 45.9549 42.1312C46.09 41.8972 46.1576 41.6366 46.1576 41.3494C46.1576 41.0658 46.09 40.8069 45.9549 40.5729C45.8198 40.3354 45.6385 40.1474 45.4109 40.0092C45.1834 39.8709 44.9327 39.8017 44.6589 39.8017C44.3887 39.8017 44.1469 39.8727 43.9336 40.0145C43.7202 40.1528 43.5531 40.3407 43.4322 40.5782C43.3114 40.8122 43.2509 41.0693 43.2509 41.3494C43.2509 41.6366 43.3114 41.899 43.4322 42.1365C43.5531 42.3705 43.7202 42.5567 43.9336 42.695C44.1469 42.8332 44.3887 42.9024 44.6589 42.9024Z" fill="#101D2D"/>
    <path d="M47.9888 42.0514V38.7008H49.2902V41.7111C49.2902 41.9202 49.3417 42.1117 49.4448 42.2854C49.5479 42.4556 49.6848 42.5921 49.8555 42.695C50.0297 42.7942 50.2199 42.8439 50.4262 42.8439C50.6395 42.8439 50.8315 42.7942 51.0022 42.695C51.1728 42.5921 51.3097 42.4556 51.4128 42.2854C51.5159 42.1117 51.5675 41.9202 51.5675 41.7111V38.7008H52.8688L52.8742 44.0193H51.5728L51.5675 43.5353C51.3826 43.7267 51.1639 43.8792 50.9115 43.9927C50.659 44.1026 50.3888 44.1575 50.1008 44.1575C49.7133 44.1575 49.3595 44.0636 49.0395 43.8757C48.7195 43.6842 48.4635 43.4307 48.2715 43.1151C48.083 42.796 47.9888 42.4415 47.9888 42.0514Z" fill="#101D2D"/>
    <path d="M55.5151 44.115C55.2377 44.0973 54.9693 44.0423 54.7097 43.9501C54.4537 43.8544 54.2262 43.725 54.0271 43.5619C53.828 43.3988 53.6751 43.2038 53.5684 42.9768L54.6671 42.5088C54.7097 42.5797 54.7791 42.656 54.8751 42.7375C54.9711 42.8155 55.0849 42.8811 55.2164 42.9343C55.3515 42.9875 55.4991 43.0141 55.6591 43.0141C55.7942 43.0141 55.9222 42.9963 56.0431 42.9609C56.1675 42.9219 56.2671 42.8634 56.3417 42.7854C56.42 42.7074 56.4591 42.6063 56.4591 42.4822C56.4591 42.351 56.4128 42.25 56.3204 42.1791C56.2315 42.1046 56.1177 42.0497 55.9791 42.0142C55.844 41.9752 55.7124 41.9397 55.5844 41.9078C55.2466 41.8405 54.932 41.7359 54.6404 41.5941C54.3524 41.4522 54.1195 41.2696 53.9417 41.0463C53.7675 40.8193 53.6804 40.5463 53.6804 40.2272C53.6804 39.8762 53.7729 39.5731 53.9577 39.3178C54.1462 39.0625 54.3897 38.8657 54.6884 38.7274C54.9906 38.5891 55.316 38.52 55.6644 38.52C56.0875 38.52 56.4751 38.6086 56.8271 38.7859C57.1826 38.9597 57.4635 39.2061 57.6697 39.5252L56.6404 40.1315C56.5906 40.0464 56.5213 39.9684 56.4324 39.8975C56.3435 39.823 56.2422 39.7627 56.1284 39.7167C56.0146 39.667 55.8955 39.6386 55.7711 39.6316C55.6111 39.6245 55.4653 39.6386 55.3337 39.6741C55.2022 39.7096 55.0955 39.7698 55.0137 39.8549C54.9355 39.94 54.8964 40.0535 54.8964 40.1953C54.8964 40.33 54.9497 40.4311 55.0564 40.4985C55.1631 40.5623 55.2911 40.6119 55.4404 40.6474C55.5933 40.6828 55.7391 40.7218 55.8777 40.7644C56.1906 40.8672 56.484 40.9931 56.7577 41.142C57.0351 41.2909 57.2573 41.4735 57.4244 41.6898C57.5915 41.9061 57.6715 42.1649 57.6644 42.4663C57.6644 42.8102 57.5613 43.1116 57.3551 43.3704C57.1489 43.6257 56.8822 43.8207 56.5551 43.9554C56.2315 44.0902 55.8849 44.1433 55.5151 44.115Z" fill="#101D2D"/>
    <path d="M58.4522 38.7008H59.7535V44.0193H58.4522V38.7008ZM59.1135 38.0148C58.9215 38.0148 58.7597 37.9527 58.6282 37.8286C58.4966 37.701 58.4308 37.5414 58.4308 37.35C58.4308 37.162 58.4966 37.0043 58.6282 36.8766C58.7597 36.749 58.9197 36.6852 59.1082 36.6852C59.2966 36.6852 59.4548 36.749 59.5828 36.8766C59.7144 37.0043 59.7802 37.162 59.7802 37.35C59.7802 37.5414 59.7162 37.701 59.5882 37.8286C59.4602 37.9527 59.3019 38.0148 59.1135 38.0148Z" fill="#101D2D"/>
    <path d="M65.8792 40.658V44.0193H64.5778V40.9984C64.5778 40.7892 64.5263 40.5995 64.4232 40.4293C64.32 40.2556 64.1814 40.1191 64.0072 40.0198C63.8365 39.917 63.6463 39.8656 63.4365 39.8656C63.2267 39.8656 63.0347 39.917 62.8605 40.0198C62.6898 40.1191 62.5529 40.2556 62.4498 40.4293C62.3503 40.5995 62.3005 40.7892 62.3005 40.9984V44.0193H60.9992L60.9938 38.7008H62.2952L62.3005 39.1742C62.4818 38.9827 62.6987 38.832 62.9512 38.7221C63.2036 38.6086 63.4756 38.5519 63.7672 38.5519C64.1547 38.5519 64.5085 38.6477 64.8285 38.8391C65.1485 39.027 65.4027 39.2805 65.5912 39.5996C65.7832 39.9152 65.8792 40.268 65.8792 40.658Z" fill="#101D2D"/>
    <path d="M69.1842 44.1575C68.6936 44.1575 68.2456 44.0317 67.8402 43.7799C67.4385 43.5282 67.1167 43.1896 66.8749 42.7641C66.6367 42.3386 66.5176 41.8688 66.5176 41.3547C66.5176 40.9683 66.5869 40.6066 66.7256 40.2698C66.8642 39.9294 67.0545 39.6316 67.2962 39.3763C67.5416 39.1174 67.826 38.9153 68.1496 38.77C68.4731 38.6246 68.818 38.5519 69.1842 38.5519C69.6002 38.5519 69.9807 38.6406 70.3256 38.8178C70.674 38.9916 70.9691 39.2309 71.2109 39.5358C71.4527 39.8407 71.6287 40.1882 71.7389 40.5782C71.8491 40.9683 71.874 41.376 71.8136 41.8015H67.9149C67.9647 42 68.0465 42.1791 68.1602 42.3386C68.274 42.4946 68.418 42.6205 68.5922 42.7162C68.7665 42.8084 68.9638 42.8563 69.1842 42.8598C69.4118 42.8634 69.618 42.8102 69.8029 42.7003C69.9913 42.5868 70.1478 42.4344 70.2722 42.2429L71.6002 42.5514C71.3833 43.0229 71.0598 43.4094 70.6296 43.7108C70.1993 44.0086 69.7176 44.1575 69.1842 44.1575ZM67.8722 40.8282H70.4962C70.4571 40.6155 70.3736 40.424 70.2456 40.2538C70.1211 40.0801 69.9665 39.9418 69.7816 39.839C69.5967 39.7362 69.3976 39.6847 69.1842 39.6847C68.9709 39.6847 68.7736 39.7362 68.5922 39.839C68.4109 39.9383 68.2562 40.0748 68.1282 40.2485C68.0038 40.4187 67.9185 40.6119 67.8722 40.8282Z" fill="#101D2D"/>
    <path d="M74.2963 44.115C74.019 44.0973 73.7505 44.0423 73.491 43.9501C73.235 43.8544 73.0074 43.725 72.8083 43.5619C72.6092 43.3988 72.4563 43.2038 72.3497 42.9768L73.4483 42.5088C73.491 42.5797 73.5603 42.656 73.6563 42.7375C73.7523 42.8155 73.8661 42.8811 73.9977 42.9343C74.1328 42.9875 74.2803 43.0141 74.4403 43.0141C74.5754 43.0141 74.7034 42.9963 74.8243 42.9609C74.9488 42.9219 75.0483 42.8634 75.123 42.7854C75.2012 42.7074 75.2403 42.6063 75.2403 42.4822C75.2403 42.351 75.1941 42.25 75.1017 42.1791C75.0128 42.1046 74.899 42.0497 74.7603 42.0142C74.6252 41.9752 74.4937 41.9397 74.3657 41.9078C74.0279 41.8405 73.7132 41.7359 73.4217 41.5941C73.1337 41.4522 72.9008 41.2696 72.723 41.0463C72.5488 40.8193 72.4617 40.5463 72.4617 40.2272C72.4617 39.8762 72.5541 39.5731 72.739 39.3178C72.9274 39.0625 73.171 38.8657 73.4697 38.7274C73.7719 38.5891 74.0972 38.52 74.4457 38.52C74.8688 38.52 75.2563 38.6086 75.6083 38.7859C75.9639 38.9597 76.2448 39.2061 76.451 39.5252L75.4217 40.1315C75.3719 40.0464 75.3025 39.9684 75.2137 39.8975C75.1248 39.823 75.0234 39.7627 74.9097 39.7167C74.7959 39.667 74.6768 39.6386 74.5523 39.6316C74.3923 39.6245 74.2465 39.6386 74.115 39.6741C73.9834 39.7096 73.8768 39.7698 73.795 39.8549C73.7168 39.94 73.6777 40.0535 73.6777 40.1953C73.6777 40.33 73.731 40.4311 73.8377 40.4985C73.9443 40.5623 74.0723 40.6119 74.2217 40.6474C74.3745 40.6828 74.5203 40.7218 74.659 40.7644C74.9719 40.8672 75.2652 40.9931 75.539 41.142C75.8163 41.2909 76.0385 41.4735 76.2057 41.6898C76.3728 41.9061 76.4528 42.1649 76.4457 42.4663C76.4457 42.8102 76.3425 43.1116 76.1363 43.3704C75.9301 43.6257 75.6634 43.8207 75.3363 43.9554C75.0128 44.0902 74.6661 44.1433 74.2963 44.115Z" fill="#101D2D"/>
    <path d="M78.9317 44.115C78.6544 44.0973 78.386 44.0423 78.1264 43.9501C77.8704 43.8544 77.6428 43.725 77.4437 43.5619C77.2446 43.3988 77.0917 43.2038 76.9851 42.9768L78.0837 42.5088C78.1264 42.5797 78.1957 42.656 78.2917 42.7375C78.3877 42.8155 78.5015 42.8811 78.6331 42.9343C78.7682 42.9875 78.9157 43.0141 79.0757 43.0141C79.2108 43.0141 79.3388 42.9963 79.4597 42.9609C79.5842 42.9219 79.6837 42.8634 79.7584 42.7854C79.8366 42.7074 79.8757 42.6063 79.8757 42.4822C79.8757 42.351 79.8295 42.25 79.7371 42.1791C79.6482 42.1046 79.5344 42.0497 79.3957 42.0142C79.2606 41.9752 79.1291 41.9397 79.0011 41.9078C78.6633 41.8405 78.3486 41.7359 78.0571 41.5941C77.7691 41.4522 77.5362 41.2696 77.3584 41.0463C77.1842 40.8193 77.0971 40.5463 77.0971 40.2272C77.0971 39.8762 77.1895 39.5731 77.3744 39.3178C77.5628 39.0625 77.8064 38.8657 78.1051 38.7274C78.4073 38.5891 78.7326 38.52 79.0811 38.52C79.5042 38.52 79.8917 38.6086 80.2437 38.7859C80.5993 38.9597 80.8802 39.2061 81.0864 39.5252L80.0571 40.1315C80.0073 40.0464 79.938 39.9684 79.8491 39.8975C79.7602 39.823 79.6588 39.7627 79.5451 39.7167C79.4313 39.667 79.3122 39.6386 79.1877 39.6316C79.0277 39.6245 78.882 39.6386 78.7504 39.6741C78.6189 39.7096 78.5122 39.7698 78.4304 39.8549C78.3522 39.94 78.3131 40.0535 78.3131 40.1953C78.3131 40.33 78.3664 40.4311 78.4731 40.4985C78.5797 40.5623 78.7077 40.6119 78.8571 40.6474C79.01 40.6828 79.1557 40.7218 79.2944 40.7644C79.6073 40.8672 79.9006 40.9931 80.1744 41.142C80.4517 41.2909 80.674 41.4735 80.8411 41.6898C81.0082 41.9061 81.0882 42.1649 81.0811 42.4663C81.0811 42.8102 80.978 43.1116 80.7717 43.3704C80.5655 43.6257 80.2989 43.8207 79.9717 43.9554C79.6482 44.0902 79.3015 44.1433 78.9317 44.115Z" fill="#101D2D"/>
    <path d="M8.41783 12.837C8.27561 18.7027 13.4178 21.4439 19.1778 22.7492C19.7378 22.8666 20.8312 23.1148 21.9201 23.4583C22.3578 23.5957 22.7934 23.7508 23.1956 23.917C23.3023 23.9613 23.4067 24.0079 23.5067 24.0544C23.8556 24.2139 24.3223 24.4223 24.7045 24.7281C24.8845 24.881 25.0512 25.0427 25.2001 25.2156C26.1289 26.2771 26.5134 27.6909 26.5134 29.2576C26.5134 31.0215 25.6378 32.6414 24.4134 33.7317H24.5223C25.8112 33.7317 27.0312 33.4481 28.1267 32.9384C28.1489 32.9273 28.1734 32.9162 28.1956 32.9051C28.6934 32.6614 29.2423 32.3423 29.7845 31.9212C29.7934 31.9146 29.8001 31.9079 29.8089 31.9013C30.4401 31.4093 31.0645 30.78 31.5978 29.9822C31.5978 29.9822 33.0756 28.0144 33.0623 25.2821V25.0915C32.6978 16.3028 21.4001 15.2303 18.7912 14.3527C18.6401 14.3017 18.4712 14.2242 18.2956 14.1333C16.9645 13.4309 16.1667 12.0237 16.2134 10.5235C16.2778 8.38057 17.2467 5.41555 21.8067 4.32749C21.8156 4.32528 21.8267 4.32306 21.8356 4.32084L22.2689 4.22777H16.7023C16.7023 4.22777 8.6245 4.0106 8.41117 12.8347L8.41783 12.837Z" fill="#101D2D"/>
    <path d="M8.41783 13.0497C8.39783 15.2391 9.10005 16.992 10.6245 18.6296C10.6712 16.8457 11.6178 15.1837 12.9312 14.0934C13.9956 13.2093 15.3467 12.7417 16.7312 12.7417H29.4401C31.7978 12.7417 33.7089 10.8359 33.7089 8.48472C33.7089 6.13354 31.8045 4.3563 29.4401 4.22777L16.6045 4.2455C11.3245 4.49591 8.44228 8.02158 8.4245 12.7062L8.41783 13.0475V13.0497Z" fill="#2166E5" fill-opacity="0.7"/>
    <path d="M44.0223 22.9442C44.0223 20.6458 42.1538 18.7825 39.8489 18.7825C37.5441 18.7825 35.6756 20.6458 35.6756 22.9442V29.3529C35.6756 31.6513 37.5441 33.5145 39.8489 33.5145C42.1538 33.5145 44.0223 31.6513 44.0223 29.3529V22.9442Z" fill="#101D2D"/>
    <path d="M39.7512 18.818C36.8534 18.818 34.8756 21.7342 35.9445 24.42C38.1112 29.8648 43.4245 33.5854 49.6778 33.5854C57.8756 33.5854 64.4534 27.19 64.4534 18.9066C64.4534 10.6232 57.8734 4.22777 49.6778 4.22777C49.6489 4.22777 49.6201 4.22777 49.5912 4.22777C45.8867 4.24772 44.0689 8.74843 46.6867 11.3589C47.3823 12.0525 48.3423 12.4004 49.3245 12.3539C49.4423 12.3472 49.5601 12.345 49.6778 12.345C53.3045 12.345 56.0912 14.9577 56.0912 18.9066C56.0912 22.8555 53.3045 25.4682 49.6778 25.4682C46.9601 25.4682 44.7534 23.948 43.8201 21.5215C43.2001 19.9127 41.6912 18.818 39.9623 18.818H39.7512Z" fill="#2166E5" fill-opacity="0.7"/>
    <path d="M37.2474 9.91124L37.2066 9.95198C35.8415 11.3133 35.8415 13.5203 37.2066 14.8816L37.3778 15.0524C38.7429 16.4137 40.9562 16.4137 42.3213 15.0524L42.3622 15.0117C43.7273 13.6504 43.7273 11.4433 42.3622 10.082L42.1909 9.91124C40.8258 8.54996 38.6125 8.54996 37.2474 9.91124Z" fill="#101D2D"/>
    <path d="M33.0601 25.107V25.2333C33.0556 27.9391 31.7867 30.3479 29.8112 31.9035C29.8023 31.9101 29.7956 31.9168 29.7867 31.9234C29.7512 31.95 29.7156 31.9788 29.6801 32.0054C29.2201 32.3533 28.7245 32.6569 28.1978 32.9073C28.1756 32.9184 28.1512 32.9295 28.1289 32.9406C27.0334 33.4503 25.8134 33.7339 24.5245 33.7339H12.0445C10.8667 33.7339 9.79783 33.2575 9.02672 32.4863C8.25561 31.7151 7.77783 30.6514 7.77783 29.477C7.77783 27.1258 9.68894 25.22 12.0467 25.22H25.1401C25.1623 25.22 25.1823 25.2178 25.2045 25.2156C28.2289 24.994 30.6245 22.5187 30.7045 19.465C32.0423 20.87 32.9623 22.6982 33.0623 25.107H33.0601Z" fill="#2166E5" fill-opacity="0.7"/>
    <path d="M66.9312 12.837C66.789 18.7027 71.9312 21.4439 77.6912 22.7492C78.2512 22.8666 79.3445 23.1148 80.4334 23.4583C80.8712 23.5957 81.3067 23.7508 81.709 23.917C81.8156 23.9613 81.9201 24.0079 82.0201 24.0544C82.3689 24.2139 82.8356 24.4223 83.2178 24.7281C83.3978 24.881 83.5645 25.0427 83.7134 25.2156C84.6423 26.2771 85.0267 27.6909 85.0267 29.2576C85.0267 31.0215 84.1512 32.6414 82.9267 33.7317H83.0356C84.3245 33.7317 85.5445 33.4481 86.6401 32.9384C86.6623 32.9273 86.6867 32.9162 86.709 32.9051C87.2067 32.6614 87.7556 32.3423 88.2978 31.9212C88.3067 31.9146 88.3134 31.9079 88.3223 31.9013C88.9534 31.4093 89.5778 30.78 90.1112 29.9822C90.1112 29.9822 91.589 28.0144 91.5756 25.2821V25.0915C91.2112 16.3028 79.9134 15.2303 77.3045 14.3527C77.1534 14.3017 76.9845 14.2242 76.809 14.1333C75.4778 13.4309 74.6801 12.0237 74.7267 10.5235C74.7912 8.38057 75.7601 5.41555 80.3201 4.32749C80.329 4.32528 80.3401 4.32306 80.349 4.32084L80.7823 4.22777H75.2156C75.2156 4.22777 67.1378 4.0106 66.9245 12.8347L66.9312 12.837Z" fill="#101D2D"/>
    <path d="M66.9312 13.0497C66.9112 15.2391 67.6134 16.992 69.1378 18.6296C69.1845 16.8457 70.1312 15.1837 71.4445 14.0934C72.5089 13.2093 73.8601 12.7417 75.2445 12.7417H87.9534C90.3112 12.7417 92.2223 10.8359 92.2223 8.48472C92.2223 6.13354 90.3178 4.3563 87.9534 4.22777L75.1178 4.2455C69.8378 4.49591 66.9556 8.02158 66.9378 12.7062L66.9312 13.0475V13.0497Z" fill="#2166E5" fill-opacity="0.7"/>
    <path d="M91.5734 25.107V25.2333C91.569 27.9391 90.3001 30.3479 88.3245 31.9035C88.3156 31.9101 88.309 31.9168 88.3001 31.9234C88.2645 31.95 88.229 31.9788 88.1934 32.0054C87.7334 32.3533 87.2378 32.6569 86.7112 32.9073C86.689 32.9184 86.6645 32.9295 86.6423 32.9406C85.5467 33.4503 84.3267 33.7339 83.0378 33.7339H70.5578C69.3801 33.7339 68.3112 33.2575 67.5401 32.4863C66.769 31.7151 66.2912 30.6514 66.2912 29.477C66.2912 27.1258 68.2023 25.22 70.5601 25.22H83.6534C83.6756 25.22 83.6956 25.2178 83.7178 25.2156C86.7423 24.994 89.1378 22.5187 89.2178 19.465C90.5556 20.87 91.4756 22.6982 91.5756 25.107H91.5734Z" fill="#2166E5" fill-opacity="0.7"/>
</svg>
