<svg width="4" height="18" viewBox="0 0 4 18" fill="none" xmlns="http://www.w3.org/2000/svg">
    <path d="M2.00004 13.5833C1.63744 13.5833 1.28298 13.6909 0.981494 13.8923C0.680004 14.0938 0.445021 14.3801 0.30626 14.7151C0.1675 15.0501 0.131194 15.4187 0.201933 15.7743C0.272673 16.13 0.447281 16.4566 0.703677 16.713C0.960074 16.9694 1.28674 17.144 1.64237 17.2148C1.99801 17.2855 2.36663 17.2492 2.70163 17.1104C3.03662 16.9717 3.32295 16.7367 3.5244 16.4352C3.72585 16.1337 3.83337 15.7793 3.83337 15.4167C3.83337 14.9304 3.64022 14.4641 3.2964 14.1203C2.95259 13.7765 2.48627 13.5833 2.00004 13.5833ZM2.00004 4.41666C2.36264 4.41666 2.7171 4.30914 3.01859 4.10769C3.32008 3.90624 3.55506 3.61992 3.69382 3.28492C3.83258 2.94992 3.86889 2.5813 3.79815 2.22567C3.72741 1.87004 3.5528 1.54337 3.2964 1.28697C3.04001 1.03057 2.71334 0.855966 2.35771 0.785227C2.00207 0.714487 1.63345 0.750793 1.29845 0.889553C0.963457 1.02831 0.677129 1.2633 0.47568 1.56479C0.274231 1.86628 0.166708 2.22073 0.166708 2.58333C0.166708 3.06956 0.359862 3.53588 0.703679 3.87969C1.0475 4.22351 1.51381 4.41666 2.00004 4.41666ZM2.00004 10.8333C2.36264 10.8333 2.7171 10.7258 3.01859 10.5244C3.32008 10.3229 3.55506 10.0366 3.69382 9.70158C3.83258 9.36659 3.86889 8.99796 3.79815 8.64233C3.72741 8.2867 3.5528 7.96003 3.2964 7.70364C3.04001 7.44724 2.71334 7.27263 2.35771 7.20189C2.00207 7.13115 1.63345 7.16746 1.29845 7.30622C0.963457 7.44498 0.677129 7.67996 0.475679 7.98145C0.27423 8.28294 0.166707 8.6374 0.166707 9C0.166707 9.48623 0.359861 9.95254 0.703678 10.2964C1.04749 10.6402 1.51381 10.8333 2.00004 10.8333Z" fill="black" />
</svg>