<svg width="22" height="22" viewBox="0 0 22 22" fill="none"
    xmlns="http://www.w3.org/2000/svg">
    <path d="M12.8334 8.25008H9.16675C8.92363 8.25008 8.69048 8.34666 8.51857 8.51857C8.34666 8.69048 8.25008 8.92363 8.25008 9.16675V20.1667C8.25008 20.4099 8.34666 20.643 8.51857 20.8149C8.69048 20.9868 8.92363 21.0834 9.16675 21.0834H12.8334C13.0765 21.0834 13.3097 20.9868 13.4816 20.8149C13.6535 20.643 13.7501 20.4099 13.7501 20.1667V9.16675C13.7501 8.92363 13.6535 8.69048 13.4816 8.51857C13.3097 8.34666 13.0765 8.25008 12.8334 8.25008ZM11.9167 19.2501H10.0834V10.0834H11.9167V19.2501ZM20.1667 0.916748H16.5001C16.257 0.916748 16.0238 1.01333 15.8519 1.18523C15.68 1.35714 15.5834 1.5903 15.5834 1.83341V20.1667C15.5834 20.4099 15.68 20.643 15.8519 20.8149C16.0238 20.9868 16.257 21.0834 16.5001 21.0834H20.1667C20.4099 21.0834 20.643 20.9868 20.8149 20.8149C20.9868 20.643 21.0834 20.4099 21.0834 20.1667V1.83341C21.0834 1.5903 20.9868 1.35714 20.8149 1.18523C20.643 1.01333 20.4099 0.916748 20.1667 0.916748ZM19.2501 19.2501H17.4167V2.75008H19.2501V19.2501ZM5.50008 13.7501H1.83341C1.5903 13.7501 1.35714 13.8467 1.18523 14.0186C1.01333 14.1905 0.916748 14.4236 0.916748 14.6667V20.1667C0.916748 20.4099 1.01333 20.643 1.18523 20.8149C1.35714 20.9868 1.5903 21.0834 1.83341 21.0834H5.50008C5.7432 21.0834 5.97635 20.9868 6.14826 20.8149C6.32017 20.643 6.41675 20.4099 6.41675 20.1667V14.6667C6.41675 14.4236 6.32017 14.1905 6.14826 14.0186C5.97635 13.8467 5.7432 13.7501 5.50008 13.7501ZM4.58342 19.2501H2.75008V15.5834H4.58342V19.2501Z" fill="#0D0D0D"/>
</svg>
    