<svg width="180" height="180" viewBox="0 0 180 180" fill="none"
    xmlns="http://www.w3.org/2000/svg">
    <g opacity="0.32" filter="url(#filter0_f_964_1816)">
        <path fill-rule="evenodd" clip-rule="evenodd" d="M7.02847 81.5C29.8411 72.7127 52.31 99.3409 76.6095 102.046C90.025 103.54 102.43 91.469 115.759 93.6048C129.021 95.73 137.157 110.256 150.105 113.824C168.221 118.815 197.33 101.538 205.672 118.376C214.969 137.142 176.249 154.669 180.498 175.174C184.722 195.553 231.575 196.774 226.079 216.845C220.38 237.657 184.562 226.326 164.392 233.99C155.037 237.544 143.086 240.573 139.275 249.826C127.51 278.397 147.21 323.48 120.882 339.65C101.186 351.747 92.982 302.123 72.9655 290.552C58.0902 281.953 37.6814 291.012 22.577 282.823C6.84521 274.293 -6.61208 260.309 -13.3713 243.739C-20.1044 227.233 -14.6795 208.695 -14.9317 190.872C-15.1872 172.814 -18.4325 154.991 -14.8777 137.287C-10.9013 117.482 -11.8197 88.7602 7.02847 81.5Z" fill="#2166E5" fill-opacity="0.3"/>
        <path fill-rule="evenodd" clip-rule="evenodd" d="M7.49746 109.037C30.3101 100.25 52.779 126.878 77.0785 129.583C90.494 131.077 102.899 119.006 116.228 121.142C129.49 123.267 137.626 137.793 150.574 141.361C168.69 146.352 197.799 129.075 206.141 145.914C215.438 164.68 176.718 182.206 180.967 202.712C185.191 223.09 232.044 224.312 226.548 244.382C220.849 265.194 185.031 253.863 164.861 261.527C155.506 265.081 143.555 268.11 139.744 277.364C127.979 305.935 147.679 351.017 121.351 367.187C101.655 379.284 93.4509 329.66 73.4345 318.089C58.5592 309.49 38.1504 318.55 23.046 310.36C7.3142 301.83 -6.14308 287.847 -12.9023 271.277C-19.6355 254.771 -14.2105 236.232 -14.4627 218.409C-14.7182 200.352 -17.9635 182.529 -14.4087 164.824C-10.4323 145.02 -11.3507 116.297 7.49746 109.037Z" fill="#2166E5" fill-opacity="0.8"/>
        <path fill-rule="evenodd" clip-rule="evenodd" d="M7.02847 93.6844C29.8411 84.897 52.31 111.525 76.6095 114.231C90.025 115.724 102.43 103.653 115.759 105.789C129.021 107.914 137.157 122.44 150.105 126.008C168.221 130.999 197.33 113.722 205.672 130.561C214.969 149.327 176.249 166.853 180.498 187.359C184.722 207.738 231.575 208.959 226.079 229.029C220.38 249.841 184.562 238.51 164.392 246.174C155.037 249.728 143.086 252.757 139.275 262.011C127.51 290.582 147.21 335.664 120.882 351.835C101.186 363.931 92.982 314.307 72.9655 302.736C58.0902 294.137 37.6814 303.197 22.577 295.007C6.84521 286.477 -6.61208 272.494 -13.3713 255.924C-20.1044 239.418 -14.6795 220.879 -14.9317 203.056C-15.1872 184.999 -18.4325 167.176 -14.8777 149.471C-10.9013 129.667 -11.8197 100.945 7.02847 93.6844Z" fill="#2166E5" fill-opacity="0.48"/>
    </g>
    <defs>
        <filter id="filter0_f_964_1816" x="-20.7595" y="75.7289" width="251.755" height="297.344" filterUnits="userSpaceOnUse" color-interpolation-filters="sRGB">
            <feFlood flood-opacity="0" result="BackgroundImageFix"/>
            <feBlend mode="normal" in="SourceGraphic" in2="BackgroundImageFix" result="shape"/>
            <feGaussianBlur stdDeviation="2" result="effect1_foregroundBlur_964_1816"/>
        </filter>
    </defs>
</svg>
    