<svg width="24" height="26" viewBox="0 0 19 20" fill="none"
    xmlns="http://www.w3.org/2000/svg">
    <path d="M9.16679 0.833496C7.3538 0.833496 5.58152 1.37111 4.07407 2.37836C2.56661 3.3856 1.3917 4.81724 0.697897 6.49223C0.00409384 8.16722 -0.177437 10.0103 0.176261 11.7885C0.529959 13.5666 1.403 15.2 2.68498 16.482C3.96696 17.764 5.60031 18.637 7.37847 18.9907C9.15662 19.3444 10.9997 19.1629 12.6747 18.4691C14.3497 17.7753 15.7813 16.6003 16.7886 15.0929C17.7958 13.5854 18.3335 11.8132 18.3335 10.0002C18.3335 8.79638 18.0964 7.60438 17.6357 6.49223C17.175 5.38008 16.4998 4.36955 15.6486 3.51835C14.7974 2.66715 13.7869 1.99194 12.6747 1.53127C11.5626 1.0706 10.3706 0.833496 9.16679 0.833496ZM9.16679 17.3335C7.7164 17.3335 6.29857 16.9034 5.09261 16.0976C3.88665 15.2918 2.94672 14.1465 2.39168 12.8065C1.83663 11.4665 1.69141 9.99203 1.97437 8.5695C2.25733 7.14697 2.95576 5.8403 3.98134 4.81471C5.00693 3.78913 6.3136 3.0907 7.73613 2.80774C9.15866 2.52478 10.6331 2.67 11.9731 3.22505C13.3131 3.78009 14.4584 4.72002 15.2642 5.92598C16.07 7.13194 16.5001 8.54977 16.5001 10.0002C16.5001 11.9451 15.7275 13.8103 14.3522 15.1856C12.977 16.5609 11.1117 17.3335 9.16679 17.3335ZM9.16679 4.50016C8.92368 4.50016 8.69052 4.59674 8.51861 4.76865C8.3467 4.94056 8.25013 5.17371 8.25013 5.41683V9.4685L6.32513 10.5777C6.14854 10.6777 6.01015 10.8336 5.93167 11.0208C5.8532 11.2079 5.83906 11.4159 5.89149 11.612C5.94392 11.808 6.05995 11.9812 6.22137 12.1042C6.3828 12.2273 6.58049 12.2932 6.78346 12.2918C6.94404 12.2929 7.10209 12.2518 7.24179 12.1727L9.62513 10.7977L9.70763 10.7152L9.85429 10.596C9.89013 10.5506 9.92088 10.5014 9.94596 10.4493C9.97583 10.4001 10.0004 10.3479 10.0193 10.2935C10.0442 10.2352 10.0597 10.1733 10.0651 10.1102L10.0835 10.0002V5.41683C10.0835 5.17371 9.98688 4.94056 9.81497 4.76865C9.64307 4.59674 9.40991 4.50016 9.16679 4.50016Z" fill="#0D0D0D"/>
</svg>
    