<svg width="26" height="28" viewBox="0 0 18 20" fill="none"
    xmlns="http://www.w3.org/2000/svg">
    <path d="M9.00226 9.21325C9.87628 9.21325 10.7307 8.95408 11.4574 8.4685C12.1841 7.98292 12.7505 7.29275 13.085 6.48526C13.4195 5.67777 13.507 4.78923 13.3365 3.932C13.166 3.07477 12.7451 2.28736 12.1271 1.66933C11.509 1.05131 10.7216 0.630427 9.86439 0.459914C9.00716 0.289401 8.11862 0.376915 7.31113 0.711388C6.50364 1.04586 5.81347 1.61227 5.32789 2.33899C4.84231 3.06571 4.58313 3.92011 4.58313 4.79413C4.58436 5.96578 5.05034 7.08909 5.87882 7.91757C6.7073 8.74605 7.83061 9.21203 9.00226 9.21325ZM9.00226 2.23037C9.50954 2.23037 10.0054 2.38081 10.4272 2.66266C10.849 2.94451 11.1777 3.34512 11.3718 3.81381C11.5659 4.2825 11.6166 4.79822 11.5176 5.29574C11.4186 5.79327 11.1742 6.25025 10.8154 6.60889C10.4567 6.96753 9.9996 7.21172 9.50203 7.31058C9.00447 7.40943 8.48877 7.35851 8.02015 7.16425C7.55153 6.97 7.15105 6.64113 6.86935 6.21925C6.58765 5.79736 6.43738 5.30142 6.43757 4.79413C6.4383 4.11424 6.70878 3.46243 7.18962 2.98176C7.67046 2.5011 8.32237 2.23086 9.00226 2.23037Z" fill="white"/>
    <path d="M9.00225 10.4456C6.8143 10.4478 4.71659 11.3179 3.16947 12.865C1.62235 14.4121 0.752209 16.5099 0.75 18.6978C0.75 18.9437 0.847689 19.1796 1.02158 19.3535C1.19546 19.5273 1.43131 19.625 1.67722 19.625C1.92313 19.625 2.15897 19.5273 2.33286 19.3535C2.50675 19.1796 2.60444 18.9437 2.60444 18.6978C2.60444 17.001 3.27849 15.3737 4.47831 14.1739C5.67814 12.974 7.30545 12.3 9.00225 12.3C10.6991 12.3 12.3264 12.974 13.5262 14.1739C14.726 15.3737 15.4001 17.001 15.4001 18.6978C15.4001 18.9437 15.4978 19.1796 15.6716 19.3535C15.8455 19.5273 16.0814 19.625 16.3273 19.625C16.5732 19.625 16.809 19.5273 16.9829 19.3535C17.1568 19.1796 17.2545 18.9437 17.2545 18.6978C17.2523 16.5099 16.3822 14.4121 14.835 12.865C13.2879 11.3179 11.1902 10.4478 9.00225 10.4456Z" fill="white"/>
</svg>
