<svg width="24" height="24" viewBox="0 0 20 20" fill="none"
    xmlns="http://www.w3.org/2000/svg">
    <path d="M19.7258 5.46248L14.5833 0.274149C14.4976 0.189191 14.3961 0.121977 14.2844 0.0763591C14.1727 0.0307416 14.0531 0.00761862 13.9325 0.0083161C13.692 0.00932867 13.4615 0.104801 13.2908 0.274149L0.274128 13.245C0.103398 13.4167 0.00756836 13.6491 0.00756836 13.8912C0.00756836 14.1334 0.103398 14.3657 0.274128 14.5375L5.46246 19.7258C5.54811 19.8108 5.6497 19.878 5.76138 19.9236C5.87306 19.9692 5.99266 19.9923 6.1133 19.9916C6.35377 19.9906 6.58422 19.8952 6.75496 19.7258L9.34913 17.1317L17.1316 9.34915L19.7258 6.75498C19.8965 6.58323 19.9924 6.3509 19.9924 6.10873C19.9924 5.86656 19.8965 5.63423 19.7258 5.46248ZM16.4808 7.40582L15.83 6.75498C15.6582 6.58425 15.4259 6.48842 15.1837 6.48842C14.9415 6.48842 14.7092 6.58425 14.5375 6.75498C14.4515 6.8402 14.3833 6.94158 14.3368 7.05329C14.2903 7.16499 14.2663 7.28481 14.2663 7.40582C14.2663 7.52683 14.2903 7.64664 14.3368 7.75835C14.3833 7.87005 14.4515 7.97143 14.5375 8.05665L15.1883 8.70748L13.8866 9.99998L11.9433 8.05665C11.7679 7.90648 11.5424 7.828 11.3117 7.83691C11.081 7.84583 10.8621 7.94146 10.6989 8.10472C10.5356 8.26797 10.44 8.48681 10.4311 8.71752C10.4221 8.94822 10.5006 9.17379 10.6508 9.34915L12.5941 11.2925L11.2925 12.5941L10.6508 11.9433C10.4782 11.7707 10.2441 11.6737 9.99996 11.6737C9.75585 11.6737 9.52174 11.7707 9.34913 11.9433C9.17652 12.1159 9.07955 12.35 9.07955 12.5941C9.07955 12.8383 9.17652 13.0724 9.34913 13.245L9.99996 13.8866L8.70746 15.1883L6.75496 13.245C6.58321 13.0743 6.35088 12.9784 6.10871 12.9784C5.86654 12.9784 5.63421 13.0743 5.46246 13.245C5.29173 13.4167 5.1959 13.6491 5.1959 13.8912C5.1959 14.1334 5.29173 14.3657 5.46246 14.5375L7.4058 16.4808L6.1133 17.7825L2.21746 13.8866L13.8866 2.21748L17.7825 6.11332L16.4808 7.40582Z" fill="#0D0D0D"/>
</svg>
    